
<svg id="cart-empty" xmlns="http://www.w3.org/2000/svg" xmlns:xlink="http://www.w3.org/1999/xlink" width="128" height="128" fill="none" xmlns:v="https://vecta.io/nano">
<g stroke="#cbacff" stroke-width="2" stroke-linecap="square">
<path d="M19 1v126M109 1v126"/>
<path d="M1 19h126M1 109h126"/>
</g>
<g filter="url(#B)">
<mask id="A" maskUnits="userSpaceOnUse" x="30" y="24" width="67" height="78" fill="#000">
<path fill="#fff" d="M30 24h67v78H30z"/><path fill-rule="evenodd" d="M52.924 39.1h21.71c-.505-5.551-5.172-9.9-10.855-9.9s-10.35 4.349-10.855 9.9zm23.917 0h8.453a3.2 3.2 0 0 1 3.185 2.893l5.063 52.6a3.2 3.2 0 0 1-3.185 3.507H37.2a3.2 3.2 0 0 1-3.185-3.507l5.063-52.6a3.2 3.2 0 0 1 3.185-2.893h8.453C51.227 32.332 56.88 27 63.778 27s12.552 5.332 13.062 12.1z"/></mask>
<path fill-rule="evenodd" d="M52.924 39.1h21.71c-.505-5.551-5.172-9.9-10.855-9.9s-10.35 4.349-10.855 9.9zm23.917 0h8.453a3.2 3.2 0 0 1 3.185 2.893l5.063 52.6a3.2 3.2 0 0 1-3.185 3.507H37.2a3.2 3.2 0 0 1-3.185-3.507l5.063-52.6a3.2 3.2 0 0 1 3.185-2.893h8.453C51.227 32.332 56.88 27 63.778 27s12.552 5.332 13.062 12.1z" fill="#231a50"/>
<path d="M74.633 39.1v3h3.285l-.297-3.272-2.988.272zm-21.709 0l-2.988-.272-.298 3.272h3.285v-3zm23.917 0l-2.992.226.209 2.774h2.782v-3zm11.638 2.893l-2.986.287 2.986-.287zm5.063 52.6l2.986-.287-2.986.287zm-59.527 0l-2.986-.287 2.986.287zm5.063-52.6l2.986.287-2.986-.287zM50.716 39.1v3h2.782l.209-2.774-2.992-.226zm23.917-3H52.924v6h21.71v-6zm2.988 2.728C76.977 31.746 71.027 26.2 63.778 26.2v6c4.117 0 7.501 3.152 7.867 7.172l5.975-.543zM63.778 26.2c-7.248 0-13.198 5.546-13.842 12.628l5.975.543c.366-4.02 3.75-7.172 7.867-7.172v-6zm21.515 9.9h-8.453v6h8.453v-6zm6.172 5.606a6.2 6.2 0 0 0-6.172-5.606v6a.2.2 0 0 1 .199.181l5.972-.575zm5.063 52.6l-5.063-52.6-5.972.575 5.063 52.6 5.972-.575zm-6.171 6.794a6.2 6.2 0 0 0 6.171-6.794l-5.972.575a.2.2 0 0 1-.199.219v6zm-53.156 0h53.156v-6H37.2v6zm-6.171-6.794A6.2 6.2 0 0 0 37.2 101.1v-6a.2.2 0 0 1-.199-.219l-5.972-.575zm5.063-52.6l-5.063 52.6 5.972.575 5.063-52.6-5.972-.575zm6.172-5.606a6.2 6.2 0 0 0-6.172 5.606l5.972.575a.2.2 0 0 1 .199-.181v-6zm8.453 0h-8.453v6h8.453v-6zm2.992 3.226C54.101 34.111 58.461 30 63.778 30v-6c-8.48 0-15.426 6.554-16.054 14.874l5.983.452zM63.778 30c5.317 0 9.677 4.111 10.071 9.326l5.983-.452C79.204 30.554 72.258 24 63.778 24v6z" fill="#fff" mask="url(#A)"/></g>
<g filter="url(#C)"><use xlink:href="#D" fill="#fff"/><use xlink:href="#D" stroke="#231a50" stroke-width="2" stroke-linejoin="round"/></g><g stroke="#231a50"><path d="M40.073 42.089a2.2 2.2 0 0 1 2.19-1.989h43.03a2.2 2.2 0 0 1 2.19 1.989l5.063 52.6a2.2 2.2 0 0 1-2.19 2.411H37.2a2.2 2.2 0 0 1-2.19-2.411l5.063-52.6z" fill="#8c5aff" stroke-width="2"/><path d="M75.778 48.1v-8c0-6.627-5.373-12-12-12h0c-6.627 0-12 5.373-12 12v8" stroke-width="2.2"/></g><g fill="#231a50"><circle cx="51.778" cy="50.1" r="3"/><circle cx="75.778" cy="50.1" r="3"/></g><path d="M75.778 75.1c0 6.075-5.373 11-12 11s-12-4.925-12-11" stroke="#231a50" stroke-width="2.485" stroke-linecap="round"/><path d="M55.687 71.18l.728.762a.5.5 0 0 0 .728.001l.727-.756 3.041-3.036c1.157-1.202 1.157-3.151 0-4.353-1.136-1.18-2.972-.728-4.132.41-1.161-1.138-2.997-1.598-4.132-.418-1.157 1.202-1.157 3.151 0 4.353l3.041 3.036zm14 0l.728.762a.5.5 0 0 0 .728.001l.727-.756 3.041-3.036c1.157-1.202 1.157-3.151 0-4.353-1.136-1.18-2.972-.728-4.132.41-1.161-1.138-2.997-1.598-4.133-.417-1.157 1.202-1.157 3.151 0 4.353l3.041 3.036z" fill="#231a50" fill-rule="evenodd"/><defs><filter id="B" x="27" y="21" width="73.557" height="85.1" filterUnits="userSpaceOnUse" color-interpolation-filters="sRGB"><feFlood flood-opacity="0" result="A"/><feColorMatrix in="SourceAlpha" values="0 0 0 0 0 0 0 0 0 0 0 0 0 0 0 0 0 0 127 0" result="B"/><feOffset dy="1"/><feGaussianBlur stdDeviation="2"/><feComposite in2="B" operator="out"/><feColorMatrix values="0 0 0 0 0.54902 0 0 0 0 0.352941 0 0 0 0 1 0 0 0 0.24 0"/><feBlend in2="A"/><feBlend in="SourceGraphic"/></filter><filter id="C" x="91.737" y="94.984" width="30.458" height="31.295" filterUnits="userSpaceOnUse" color-interpolation-filters="sRGB"><feFlood flood-opacity="0" result="A"/><feColorMatrix in="SourceAlpha" values="0 0 0 0 0 0 0 0 0 0 0 0 0 0 0 0 0 0 127 0" result="B"/><feOffset dx="-1" dy="1"/><feGaussianBlur stdDeviation="2"/><feComposite in2="B" operator="out"/><feColorMatrix values="0 0 0 0 0.54902 0 0 0 0 0.352941 0 0 0 0 1 0 0 0 0.24 0"/><feBlend in2="A"/><feBlend in="SourceGraphic"/></filter><path id="D" d="M104.758 119.619l-6.956-19.29c-.3-.831.547-1.614 1.352-1.25l18.453 8.33c.819.37.773 1.548-.072 1.853l-5.8 2.091 5.38 5.339a1 1 0 0 1 .015 1.406l-1.411 1.457a1 1 0 0 1-1.464-.029l-4.847-5.42-2.815 5.621c-.394.786-1.537.719-1.835-.108z"/></defs></svg>